<svg id="报表" xmlns="http://www.w3.org/2000/svg" viewBox="0 0 25.99 26"><title>报表1</title><path d="M23.94,12.92H13.88a.78.78,0,0,1-.78-.78V2.06a1,1,0,0,0-1-1h0A11.94,11.94,0,0,0,4.69,3.62,12.18,12.18,0,0,0,2.1,6.45,12.65,12.65,0,0,0,.47,16.77a12.8,12.8,0,0,0,8.76,8.76,12.34,12.34,0,0,0,3.36.46A12.65,12.65,0,0,0,16,25.53a12.45,12.45,0,0,0,3.55-1.62,12.21,12.21,0,0,0,2.83-2.59A11.94,11.94,0,0,0,25,14a1,1,0,0,0-1-1h0Z" transform="translate(-0.01 0)"/><path d="M25.17,6.49A10.62,10.62,0,0,0,15.38,0a.9.9,0,0,0-.9.9h0v9.74a.9.9,0,0,0,.9.9H25.1a.9.9,0,0,0,.9-.9A10.6,10.6,0,0,0,25.17,6.49Z" transform="translate(-0.01 0)"/></svg>