<svg id="图层_7" data-name="图层 7" xmlns="http://www.w3.org/2000/svg" viewBox="0 0 26 21.77"><title>报表</title><path d="M1.86,16.74a.92.92,0,0,0-.93.91v5.44a.92.92,0,0,0,.93.91.92.92,0,0,0,.93-.91V17.65A.92.92,0,0,0,1.86,16.74Zm7.43-6.35a.92.92,0,0,0-.93.91V23.09a.93.93,0,0,0,1.86,0V11.3A.92.92,0,0,0,9.29,10.39Zm7.43,6.35a.92.92,0,0,0-.93.91v5.44a.93.93,0,0,0,1.86,0V17.65A.92.92,0,0,0,16.71,16.74Zm7.43-6.35a.92.92,0,0,0-.93.91V23.09a.93.93,0,0,0,1.86,0V11.3A.92.92,0,0,0,24.14,10.39Z" transform="translate(0 -2.23)"/><path d="M24.14,2.23A1.84,1.84,0,0,0,22.29,4a1.69,1.69,0,0,0,.09.44L17.17,9.57a1.72,1.72,0,0,0-.45-.09,1.74,1.74,0,0,0-.38.07L11.07,4.41A1.65,1.65,0,0,0,11.14,4,1.86,1.86,0,0,0,7.43,4a1.77,1.77,0,0,0,.09.44L2.31,9.57a1.8,1.8,0,0,0-.45-.09,1.81,1.81,0,1,0,0,3.63A1.84,1.84,0,0,0,3.71,11.3a1.69,1.69,0,0,0-.09-.44L8.83,5.76a1.78,1.78,0,0,0,.45.09,1.87,1.87,0,0,0,.43-.08l5.23,5.11a1.67,1.67,0,0,0-.09.42,1.86,1.86,0,0,0,3.71,0,1.69,1.69,0,0,0-.09-.44l5.21-5.09a1.79,1.79,0,0,0,.45.09A1.84,1.84,0,0,0,26,4a1.84,1.84,0,0,0-1.86-1.81Z" transform="translate(0 -2.23)"/></svg>