<svg id="图层_4" data-name="图层 4" xmlns="http://www.w3.org/2000/svg" viewBox="0 0 26 26"><title>促销管理</title><path d="M23.49,4.84h-.91a3.72,3.72,0,0,0,.6-2.23A2.74,2.74,0,0,0,21.84.54,3.85,3.85,0,0,0,18.73.16,11.49,11.49,0,0,0,13,4.33,11.49,11.49,0,0,0,7.27.16,3.84,3.84,0,0,0,4.16.54,2.74,2.74,0,0,0,2.82,2.62a3.71,3.71,0,0,0,.6,2.23H2.51A2.51,2.51,0,0,0,0,7.35v3.23A2.51,2.51,0,0,0,1.77,13a2.47,2.47,0,0,0-.15.84v9.69A2.51,2.51,0,0,0,4.12,26H21.88a2.51,2.51,0,0,0,2.51-2.51V13.81a2.46,2.46,0,0,0-.15-.85A2.51,2.51,0,0,0,26,10.58V7.35a2.51,2.51,0,0,0-2.51-2.51M21.88,24.22h-8V13.08h8a.72.72,0,0,1,.72.72v9.69a.72.72,0,0,1-.72.72m-7-19.37a9.41,9.41,0,0,1,4.29-3A2.1,2.1,0,0,1,20.86,2a1,1,0,0,1,.54.75,3.41,3.41,0,0,1-1.06,2.06Zm9.34,2.51v3.23a.72.72,0,0,1-.72.72h-9.6V6.63h9.6a.72.72,0,0,1,.72.72M12.11,13.08V24.22h-8a.72.72,0,0,1-.72-.72V13.81a.72.72,0,0,1,.72-.72h8ZM4.6,2.78A1,1,0,0,1,5.14,2a2.09,2.09,0,0,1,1.7-.15,9.42,9.42,0,0,1,4.28,3H5.66A3.42,3.42,0,0,1,4.6,2.78M1.79,7.35a.72.72,0,0,1,.72-.72h9.6V11.3H2.51a.72.72,0,0,1-.72-.72V7.35Z" transform="translate(0 0)"/></svg>