<svg id="图层_21" data-name="图层 21" xmlns="http://www.w3.org/2000/svg" viewBox="0 0 22 26.06"><title>订单</title><path d="M15.86,0H10.13A1.38,1.38,0,0,0,8.87,1.48,1.39,1.39,0,0,0,10.13,3H15.9a1.38,1.38,0,0,0,1.23-1.49A1.38,1.38,0,0,0,15.86,0Zm3.32,1.49c0,1.93-.33,3-2.06,3H8.88c-1.73,0-2.06-1.38-2.06-3H4.06A2.09,2.09,0,0,0,2,3.72v20.1c0,1.48.74,2.23,2.06,2.23H21.94A2,2,0,0,0,24,23.83V3.72a2,2,0,0,0-2.06-2.23H19.19ZM18.51,20.1H7.62a.9.9,0,0,1-.8-.81.72.72,0,0,1,.74-.67H18.42a.75.75,0,0,1,.77.67.79.79,0,0,1-.68.81Zm-.14-5.22H7.46a.72.72,0,0,1-.66-.76.77.77,0,0,1,.74-.73H18.42a.8.8,0,0,1,.77.73.87.87,0,0,1-.82.76Zm0-5.21H7.46a.72.72,0,0,1-.66-.75.77.77,0,0,1,.74-.73H18.42a.8.8,0,0,1,.77.73.87.87,0,0,1-.82.75Z" transform="translate(-2)"/></svg>