<svg viewBox="0 0 21.59 26" xmlns="http://www.w3.org/2000/svg"><g transform="translate(-2.46)"><path d="m7.24 11h12v1.63h-12zm0 4.38h12v1.62h-12zm0 4.38h6v1.63h-6z"/><path d="m21.9 4.14h-2.9a2.2 2.2 0 0 0 -2.21-2.14 2.2 2.2 0 0 0 -2.19-2h-2.69a2.2 2.2 0 0 0 -2.19 2 2.2 2.2 0 0 0 -2.15 2.14h-2.95a2.16 2.16 0 0 0 -2.16 2.16v17.54a2.16 2.16 0 0 0 2.16 2.16h17.28a2.16 2.16 0 0 0 2.16-2.16v-17.54a2.16 2.16 0 0 0 -2.16-2.16zm-12.13-.65h.71a.76.76 0 0 0 .76-.76v-.53a.68.68 0 0 1 .68-.68h2.68a.68.68 0 0 1 .68.68v.53a.76.76 0 0 0 .76.76h.71a.68.68 0 0 1 .68.65v1.78a.68.68 0 0 1 -.68.68h-7a.68.68 0 0 1 -.68-.68v-1.78a.68.68 0 0 1 .7-.65zm12.76 20.35a.64.64 0 0 1 -.64.64h-17.27a.64.64 0 0 1 -.62-.64v-17.54a.64.64 0 0 1 .64-.64h2.93v.26a2.2 2.2 0 0 0 2.2 2.2h7a2.2 2.2 0 0 0 2.23-2.2v-.26h2.9a.64.64 0 0 1 .64.64v17.54z"/></g></svg>