<svg id="图层_1" data-name="图层 1" xmlns="http://www.w3.org/2000/svg" viewBox="0 0 147.33 176.84"><defs><style>.cls-1{fill:#5cb85c;}</style></defs><title>excel</title><path class="cls-1" d="M112.05,105.53h35.66v11.79H112.05Zm0-23.58h35.66V93.86H112.05Zm0,47.16h35.66V141H112.05Zm48.14-86.53L140.74,20.12a28.2,28.2,0,0,0-18.6-8.84H56.89A11.84,11.84,0,0,0,46,23.84V49.24h8.73V23.84A2.41,2.41,0,0,1,57,21.3h65.27a10.38,10.38,0,0,1,2.21.24v40h34.62c.17.94.25,5.89.25,6.6v107.4a2.46,2.46,0,0,1-2.21,2.53H57a2.36,2.36,0,0,1-2.21-2.5h0a.08.08,0,0,0,0,0v-8.35H46v8.35a11.84,11.84,0,0,0,10.84,12.56H157a11.84,11.84,0,0,0,10.85-12.56V68.16a52.27,52.27,0,0,0-7.66-25.58Zm-27.11,8.9V25.84a13.18,13.18,0,0,1,1.55,1.41L154,49.71c.41.49.82,1.12,1.3,1.77ZM20.54,61v94.31h81.54V61ZM71,130.34l-9.66-14.43L57,122.41h0l-5.13,7.92H39.5L55.33,107l-14-21H53l8.29,12.2L69.59,86H81.3l-14,21,15.84,23.33H71Z" transform="translate(-20.54 -11.28)"/></svg>