<?xml version="1.0" standalone="no"?><!DOCTYPE svg PUBLIC "-//W3C//DTD SVG 1.1//EN" "http://www.w3.org/Graphics/SVG/1.1/DTD/svg11.dtd"><svg t="1537252515384" class="icon" style="" viewBox="0 0 1024 1024" version="1.1" xmlns="http://www.w3.org/2000/svg" p-id="12930" xmlns:xlink="http://www.w3.org/1999/xlink" width="200" height="200"><defs><style type="text/css"></style></defs><path d="M474.427262 761.867838l0-13.472849c0-3.575432 0.261977-7.79657 0.868823-12.564154l-214.063961 0c-15.009447 0-27.876003-5.351891-38.542361-16.098653-10.725712-10.745738-16.049169-23.896246-16.049169-39.409568 0-15.533788 5.322434-28.844955 16.049169-39.914058 10.666358-11.04966 23.533937-16.564257 38.542361-16.564257l252.181632 0c21.938537-35.268248 51.005717-63.385633 87.083856-84.252893 36.097582-20.926612 75.85261-31.369452 119.161726-31.369452 4.626557 0 9.515091 0.161682 14.746447 0.485047 5.172001 0.222057 10.38289 0.707105 15.594802 1.352811L750.000586 287.803845 623.465636 287.803845c-16.160714 0-30.017871-3.756557-41.613428-11.230786-11.554624-7.493671-20.907002-16.724917-28.15947-27.795043-7.191067-10.988262-12.523734-23.087834-15.999025-36.238342-3.474267-13.150508-5.211912-25.411763-5.211912-36.783765L532.481801 63.790862 287.351037 63.790862l-86.760478 0-69.761642 0c-8.32289 0-16.645781 3.252067-22.978259 9.797134-6.363179 6.605442-9.514068 15.210423-9.514068 23.794939l0 81.94943 0 31.126928 0 547.974329-0.040934 0 0 113.077382c0 8.603959 3.191823 17.20894 9.514068 23.814382 6.332478 6.5246 14.655369 9.79611 22.978259 9.79611l76.933266 0c0.787978 0.080841 1.575956 0.080841 2.384401 0.080841l307.652218 0c-13.85818-20.319791-24.543981-42.539862-32.058427-66.739007C478.163506 814.265208 474.427262 788.692786 474.427262 761.867838L474.427262 761.867838zM222.688739 415.929967c10.685801-10.745738 23.533937-16.07921 38.542361-16.07921l324.963174 0c15.009447 0 27.877026 5.332449 38.583294 16.07921 10.665334 10.745738 15.998001 23.87578 15.998001 39.409568s-5.332667 28.844955-15.998001 39.893592c-10.706268 11.069103-23.573847 16.564257-38.583294 16.564257L261.2311 511.797385c-15.009447 0-27.856559-5.494131-38.542361-16.564257-10.706268-11.048637-16.049169-24.360827-16.049169-39.893592S211.982471 426.676729 222.688739 415.929967L222.688739 415.929967zM651.967928 230.457766l0.160666 0 97.871992 0 0-14.341636L750.000586 97.382934c0-8.584516-3.172379-17.189498-9.515091-23.794939-6.363179-6.545066-14.686069-9.797134-23.007936-9.797134L588.821209 63.790862l-1.758112 0-0.079821 0 0 99.462293c0 17.189498 6.342712 34.400484 19.048602 47.529503C618.738791 223.852324 635.383549 230.457766 651.967928 230.457766L651.967928 230.457766zM728.648427 566.133921c-108.81977 0-197.034425 88.191598-197.034425 197.046818 0 108.815311 88.214655 197.026352 197.034425 197.026352s197.055915-88.211041 197.055915-197.026352C925.703319 654.325519 837.468197 566.133921 728.648427 566.133921L728.648427 566.133921zM728.648427 910.960481c-81.608943 0-147.785796-66.194608-147.785796-147.779741 0-81.646532 66.176853-147.800207 147.785796-147.800207 81.630433 0 147.785796 66.152653 147.785796 147.800207C876.434223 844.766896 810.277837 910.960481 728.648427 910.960481L728.648427 910.960481zM807.02666 702.19783l-17.432735-17.412578c-4.788246-4.787026-12.585135-4.787026-17.413292 0l-43.532206 43.550888-43.531183-43.550888c-4.80769-4.787026-12.604579-4.787026-17.413292 0l-17.413292 17.412578c-4.828156 4.807493-4.828156 12.624529 0 17.432021l43.532206 43.530422-43.532206 43.550888c-4.828156 4.806469-4.828156 12.604062 0 17.411555l17.413292 17.412578c4.80769 4.807493 12.604579 4.807493 17.413292 0l43.531183-43.529399 43.532206 43.529399c4.806666 4.807493 12.604579 4.807493 17.413292 0l17.432735-17.412578c4.806666-4.806469 4.806666-12.604062 0-17.411555l-43.532206-43.550888 43.532206-43.530422C811.833326 714.822358 811.833326 707.006346 807.02666 702.19783L807.02666 702.19783zM807.02666 702.19783" p-id="12931"></path></svg>