<svg id="帮助" xmlns="http://www.w3.org/2000/svg" viewBox="0 0 26 26"><path d="M10.57,10.42h0a3.41,3.41,0,0,1,.54-2.06,2.21,2.21,0,0,1,2-.87,2.28,2.28,0,0,1,1.7.61,2.34,2.34,0,0,1,.58,1.66,2.4,2.4,0,0,1-.56,1.47l-.34.38a10.36,10.36,0,0,0-2.26,2.5,4.05,4.05,0,0,0-.4,1.92v.34h2.14V16a2.74,2.74,0,0,1,.32-1.33,3.11,3.11,0,0,1,.84-1,20.52,20.52,0,0,0,1.68-1.57,3.93,3.93,0,0,0,.76-2.46,3.64,3.64,0,0,0-1.2-2.89,4.45,4.45,0,0,0-3.11-1.07A4.62,4.62,0,0,0,9.74,6.94a4.66,4.66,0,0,0-1.26,3.33s0,0,0,.05v0s0,0,0,.06h0a1,1,0,0,0,2.08,0Z" transform="translate(0 0)"/><path d="M13,0A13,13,0,1,0,26,13,13,13,0,0,0,13,0Zm0,24.3A11.3,11.3,0,1,1,24.3,13,11.3,11.3,0,0,1,13,24.3Z" transform="translate(0 0)"/><path d="M13.91,17.87a1.33,1.33,0,0,1,.42,1,1.44,1.44,0,0,1-.44,1,1.48,1.48,0,0,1-1,.4,1.44,1.44,0,0,1-1.46-1.45,1.32,1.32,0,0,1,.42-1,1.4,1.4,0,0,1,1-.4A1.42,1.42,0,0,1,13.91,17.87Z" transform="translate(0 0)"/></svg>
