<?xml version="1.0" standalone="no"?><!DOCTYPE svg PUBLIC "-//W3C//DTD SVG 1.1//EN" "http://www.w3.org/Graphics/SVG/1.1/DTD/svg11.dtd"><svg t="1537252456949" class="icon" style="" viewBox="0 0 1024 1024" version="1.1" xmlns="http://www.w3.org/2000/svg" p-id="12589" xmlns:xlink="http://www.w3.org/1999/xlink" width="200" height="200"><defs><style type="text/css"></style></defs><path d="M902.308427 168.751379c0-41.24845-17.527189-58.551534-59.020208-58.551534L124.218116 110.199845c-41.443901 0-58.927087 17.303085-58.927087 58.551534l0 100.216469 837.017398 0L902.308427 168.751379z" p-id="12590"></path><path d="M735.887117 441.406199c63.781652 0 122.019031 23.694655 166.420287 62.752206L902.307404 381.442502 65.290005 381.442502l0 331.792709c0 41.244356 17.48728 58.56586 58.927087 58.56586l372.002502 0c-8.049327-24.65247-12.422937-50.967812-12.422937-78.30953C483.797681 554.267663 596.662215 441.406199 735.887117 441.406199z" p-id="12591"></path><path d="M716.449415 713.457268l-0.261966 87.768973L560.452525 676.127058c0 0 151.111626-134.042879 151.625326-134.016273l0.245593 73.134671c0 0 180.536796 2.217505 232.748948 153.525606 8.909927-23.564695 13.636578-48.599881 13.636578-75.278497 0-30.021757-5.91164-58.416458-17.748223-85.168752-11.682064-26.603915-27.800159-50.112328-47.8938-70.091358-20.262486-19.961634-43.766806-35.925211-70.825069-47.596018-26.917046-11.68718-55.4458-17.446347-85.764316-17.446347-31.046087 0-60.027142 5.759167-86.944188 17.446347-26.897603 11.68104-50.562583 27.634384-70.665433 47.596018-20.25737 19.980054-36.231179 43.487444-48.058552 70.091358-11.837606 26.752294-17.740036 55.146994-17.740036 85.168752 0 30.748305 5.912663 59.44181 17.740036 86.050842 11.83249 26.755364 27.801183 50.114374 48.058552 70.234621 20.10592 19.950378 43.757596 35.616172 70.665433 47.004547 26.917046 11.411911 55.897078 17.016559 86.944188 17.016559 30.318516 0 58.84727-5.604648 85.764316-17.016559 27.058262-11.389398 50.562583-27.054169 70.825069-47.004547 16.576537-16.594957 30.27656-35.534308 41.182958-56.631812C898.824069 755.982804 822.858934 694.856631 716.449415 713.457268z" p-id="12592"></path></svg>