<svg id="图层_6" data-name="图层 6" xmlns="http://www.w3.org/2000/svg" viewBox="0 0 25.89 26"><title>金融贷款</title><path d="M20.16,14.09h-16a.89.89,0,0,1-.89-.89V.89A.89.89,0,0,1,4.19,0h16a.89.89,0,0,1,.89.89V13.2A.89.89,0,0,1,20.16,14.09ZM5.08,12.29h14.2V1.78H5.08Z"/><path d="M15.29,6.77H9.06A.89.89,0,1,1,9.06,5h6.25a.89.89,0,0,1,.89.89A.9.9,0,0,1,15.29,6.77Zm0,2.51H9.06a.89.89,0,1,1,0-1.78h6.25a.89.89,0,0,1,.89.89A.9.9,0,0,1,15.29,9.28Z"/><path d="M12.18,12.1a.89.89,0,0,1-.89-.89V6a.89.89,0,0,1,1.78,0v5.2A.89.89,0,0,1,12.18,12.1Z"/><path d="M11.79,6.71A.89.89,0,0,1,11,6.28L9.79,4.22a.89.89,0,0,1,1.52-.92l1.24,2.06a.9.9,0,0,1-.3,1.22A.81.81,0,0,1,11.79,6.71Z"/><path d="M12.45,6.71A1,1,0,0,1,12,6.58a.88.88,0,0,1-.3-1.22L12.93,3.3a.89.89,0,0,1,1.52.92L13.21,6.28a.86.86,0,0,1-.76.43Zm4.7,13.86a.89.89,0,0,1,0-1.78.78.78,0,0,0,0-1.55.89.89,0,0,1,0-1.78A2.58,2.58,0,0,1,19.72,18,2.54,2.54,0,0,1,17.15,20.57Z"/><path d="M17.15,20.57H10.9a.89.89,0,1,1,0-1.78h6.25a.89.89,0,0,1,.89.89A.87.87,0,0,1,17.15,20.57Z"/><path d="M.89,22.48A.89.89,0,0,1,0,21.59V16.34a.89.89,0,0,1,.89-.89H17.15a.89.89,0,1,1,0,1.78H1.79v4.36A.9.9,0,0,1,.89,22.48ZM24.49,20a.89.89,0,0,1-.63-1.52.81.81,0,0,0,.24-.56.79.79,0,0,0-.68-.78l-3.65,1a.89.89,0,1,1-.48-1.71l3.79-1a1.22,1.22,0,0,1,.24,0,2.57,2.57,0,0,1,1.82,4.38,1,1,0,0,1-.65.25Z"/><path d="M11.44,26A18,18,0,0,1,.49,22.34a.89.89,0,0,1,1.08-1.43,16.27,16.27,0,0,0,9.87,3.3,16.43,16.43,0,0,0,12.25-5.49A.89.89,0,1,1,25,19.89,18.14,18.14,0,0,1,11.44,26Z"/></svg>