<svg id="图层_2" data-name="图层 2" xmlns="http://www.w3.org/2000/svg" viewBox="0 0 26 22.65"><title>客户管理</title><path d="M0,22.13a.84.84,0,1,0,1.68,0A6.69,6.69,0,0,1,7.6,15.5l.71,1.43L7.55,23H9.22l-.75-6.06.71-1.42a6.77,6.77,0,0,1,2,.52,8.11,8.11,0,0,1,.55-1.6A8.39,8.39,0,0,0,0,22.13ZM8.39,2a5,5,0,1,0,5,5A5,5,0,0,0,8.39,2Zm0,8.39A3.36,3.36,0,1,1,11.75,7,3.36,3.36,0,0,1,8.39,10.39Zm17.47,6.16c-.07-.41-.3-.67-.58-.66h-.06A1.8,1.8,0,0,1,23.48,14a2.24,2.24,0,0,1,.15-.71.86.86,0,0,0-.27-1h0l-1.68-1h0a.85.85,0,0,0-1,.2,2.45,2.45,0,0,1-1.37.81,2.46,2.46,0,0,1-1.38-.82.87.87,0,0,0-.63-.28.75.75,0,0,0-.32.07h0l-1.74,1h0a.86.86,0,0,0-.27,1,2.18,2.18,0,0,1,.15.71,1.8,1.8,0,0,1-1.74,1.85H13.3c-.28,0-.51.25-.58.66a9.67,9.67,0,0,0-.14,1.39,9.64,9.64,0,0,0,.14,1.39c.07.4.3.66.57.66h.07a1.8,1.8,0,0,1,1.74,1.85,2.24,2.24,0,0,1-.15.71.87.87,0,0,0,.26,1h0l1.65,1h0a.83.83,0,0,0,1-.21,2.5,2.5,0,0,1,1.4-.86,2.47,2.47,0,0,1,1.41.87.85.85,0,0,0,.64.29.77.77,0,0,0,.32-.07h0l1.71-1h0a.86.86,0,0,0,.27-1,2.16,2.16,0,0,1-.15-.71A1.8,1.8,0,0,1,25.22,20h.06c.28,0,.51-.25.58-.66A9.35,9.35,0,0,0,26,17.94a9.41,9.41,0,0,0-.14-1.39ZM24.23,19a2.24,2.24,0,0,0-2,2.29,2.58,2.58,0,0,0,.18.88L21,23h0a3.88,3.88,0,0,0-.5-.47,2,2,0,0,0-1.19-.5,2,2,0,0,0-1.19.49,4,4,0,0,0-.5.47h0l-1.31-.78a2.56,2.56,0,0,0,.18-.88,2.24,2.24,0,0,0-2-2.29,7.31,7.31,0,0,1-.11-1,7.32,7.32,0,0,1,.11-1,2.24,2.24,0,0,0,2-2.29,2.59,2.59,0,0,0-.18-.88l1.38-.81h.06a4.06,4.06,0,0,0,.5.45,2,2,0,0,0,1.17.47,2,2,0,0,0,1.16-.46,4,4,0,0,0,.49-.44H21l1.34.79a2.56,2.56,0,0,0-.18.88,2.24,2.24,0,0,0,2,2.29,7.39,7.39,0,0,1,.1,1,7.43,7.43,0,0,1-.1,1Z" transform="translate(0 -2)"/><path d="M19.29,15.43a2.5,2.5,0,1,0,2.53,2.5A2.51,2.51,0,0,0,19.29,15.43Zm0,3.34a.84.84,0,1,1,.84-.84A.84.84,0,0,1,19.29,18.78Z" transform="translate(0 -2)"/></svg>