<svg id="图层_16" data-name="图层 16" xmlns="http://www.w3.org/2000/svg" viewBox="0 0 26 22"><title>客户</title><path d="M18.76,7.65h7.19V6.21H18.76Zm7.19,5H18.05V11.16H26V12.6Zm-3.62,5h3.62V16.17H22.33Z" transform="translate(0 -2)"/><path d="M20.76,22.56a10.36,10.36,0,0,0-7.19-9.43A5.89,5.89,0,0,0,16.49,8,6.11,6.11,0,0,0,4.27,8a6.07,6.07,0,0,0,2.92,5.11A10.25,10.25,0,0,0,0,22.56H0A1.44,1.44,0,0,0,1.46,24h18c.81,0,1.46-1.44,1.3-1.44Zm-10.35.21-1.28-1.3,1.16-6-.65-.88a1.78,1.78,0,0,1,1.54,0l-.65.88,1.16,6Z" transform="translate(0 -2)"/></svg>