<svg id="图层_2" data-name="图层 2" xmlns="http://www.w3.org/2000/svg" viewBox="0 0 163.52 175.08"><defs><style>.cls-1{fill:#ff7a83;}.cls-2{fill:#792026;}.cls-3{fill:#ed6069;}.cls-4{fill:#fff;}</style></defs><title>pdf</title><path class="cls-1" d="M169.65,47.91V187.54H54.12a21.6,21.6,0,0,1-21.62-21.6V12.46h99.88Z" transform="translate(-19.22 -12.46)"/><path class="cls-2" d="M132.4,51.62h37.27V47.93L132.4,12.46Zm-61,37.11a5.17,5.17,0,0,0,2.95,4.77,4.6,4.6,0,0,0,2.62.7c4.34,0,9.39-4.92,14.79-14.61a121.32,121.32,0,0,1,20.7-6.7,21.81,21.81,0,0,0,12.87,5.29c3,0,8.71,0,8.71-6,.18-2.27-1-6.15-9.22-6.33a57.59,57.59,0,0,0-11,1.23A53,53,0,0,1,103.12,53c2.95-9.84,3.13-16.54.86-19.71A5.76,5.76,0,0,0,99.45,31a5.51,5.51,0,0,0-5.39,2.81c-3.12,5.27,1.39,15.66,3.48,19.88a126.63,126.63,0,0,1-9.22,21.82C71.8,82.75,71.45,87.15,71.45,88.73Zm5.72.18-.51.18A13.76,13.76,0,0,1,82.91,84,11.34,11.34,0,0,1,77.17,88.91Zm47.5-17.77c3.5,0,4.18.88,4.16,1.41a7.6,7.6,0,0,1-3.48.35,14.44,14.44,0,0,1-5.21-1.41A19.79,19.79,0,0,1,124.67,71.13ZM98.57,36.46a1.06,1.06,0,0,1,.7-.18h.53a14.83,14.83,0,0,1-.2,9.16A14.56,14.56,0,0,1,98.57,36.46ZM100.66,62l.18.18.18-.35a52.84,52.84,0,0,0,7,8.63h-.53l.16.18A104.16,104.16,0,0,0,95.8,74.14v-.35l-.35.18C97.36,70.06,99.1,66.05,100.66,62Z" transform="translate(-19.22 -12.46)"/><path class="cls-3" d="M132.4,47.93h37.27L132.4,12.46ZM19.22,96.54H182.73V166H19.22Z" transform="translate(-19.22 -12.46)"/><path class="cls-4" d="M57.85,149.36V114.43H71a32.7,32.7,0,0,1,5.31.33,10.44,10.44,0,0,1,4.32,1.64,8.59,8.59,0,0,1,2.79,3.38,11.39,11.39,0,0,1-1.78,12.3c-1.89,2.05-5.29,3.09-10.23,3.09H62.48v14.18ZM62.46,131h9c3,0,5.1-.55,6.37-1.66a6,6,0,0,0,1.88-4.69,6.27,6.27,0,0,0-1.11-3.75,5.22,5.22,0,0,0-2.91-2.05,19.16,19.16,0,0,0-4.32-.31H62.46Zm27.91,18.32V114.43h12a29.1,29.1,0,0,1,6.21.51,11.87,11.87,0,0,1,5.12,2.5,14.33,14.33,0,0,1,4.14,6,23.34,23.34,0,0,1,1.37,8.3,24.17,24.17,0,0,1-.94,7.05,16.82,16.82,0,0,1-2.38,5.08,12.52,12.52,0,0,1-3.18,3.16,13.49,13.49,0,0,1-4.16,1.76,24.1,24.1,0,0,1-5.61.59H90.37ZM95,145.23h7.46a18,18,0,0,0,5.41-.64,7.74,7.74,0,0,0,3.13-1.82,10.9,10.9,0,0,0,2.56-4.41,21.73,21.73,0,0,0,.92-6.72c0-3.65-.61-6.46-1.8-8.42a9,9,0,0,0-4.38-3.95,18.15,18.15,0,0,0-6-.72H95Zm30.84,4.12V114.43h23.55v4.12H130.47v10.8h16.39v4.12H130.47v15.88h-4.63Z" transform="translate(-19.22 -12.46)"/></svg>