<?xml version='1.0' encoding='iso-8859-1'?>
<svg version="1.1" xmlns="http://www.w3.org/2000/svg" viewBox="0 0 44 44" xmlns:xlink="http://www.w3.org/1999/xlink" enable-background="new 0 0 44 44">
  <g>
    <path d="m22,0c-12.2,0-22,9.8-22,22s9.8,22 22,22 22-9.8 22-22-9.8-22-22-22zm11,22c0,3-1.2,5.8-3.2,7.8s-4.7,3.2-7.8,3.2c-0.5,0-1,0-1.5-0.1-2.5,1.4-4.9,2.1-6.8,2.1-1.4,0-2.6-0.4-3.4-1.2-0.8-0.8-1.2-2-1.2-3.4 0-1.9 0.7-4.3 2.1-6.8-0.1-0.5-0.1-1-0.1-1.6 0-3 1.2-5.8 3.2-7.8s4.7-3.2 7.8-3.2c0.5,0 1,0.1 1.6,0.1 2.5-1.4 4.9-2.1 6.8-2.1 1.4,0 2.6,0.6 3.4,1.4s1.2,1.6 1.2,3.6c0,2-0.8,4.1-2.1,6.6-0.1,0.5 0,0.9 0,1.4z"/>
    <path d="m29.7,13c-0.1,0-0.2,0.1-0.3,0.2-0.2,0.2-0.2,0.5 0,0.7s0.5,0.4 0.7,0.7c0.1,0.1 0.2,0.1 0.3,0.2 0.3,0 0.5-0.1 0.6-0.4 0-0.2 0.1-0.5 0.1-0.6 0-0.3 0-0.5-0.1-0.6-0.3-0.2-0.7-0.3-1.3-0.2z"/>
    <path d="m22,15c-1.9,0-3.7,0.8-4.9,2.1s-2.1,3-2.1,4.9c0,3 1.9,5.5 4.5,6.5 0.2,0.1 0.3,0 0.5-0.1 1.5-1 3.1-2.2 4.7-3.8 1.6-1.6 2.9-3.2 3.8-4.7 0.1-0.1 0.1-0.3 0.1-0.5-1.1-2.5-3.6-4.4-6.6-4.4z"/>
    <path d="m13.9,29.4c-0.2-0.2-0.5-0.2-0.7,0-0.1,0.1-0.1,0.2-0.2,0.3-0.1,0.6-0.1,1 0,1.2 0.1,0 0.3,0.1 0.6,0.1 0.2,0 0.4,0 0.6-0.1 0.3,0 0.5-0.3 0.4-0.6 0-0.1-0.1-0.2-0.2-0.3-0.1-0.1-0.3-0.3-0.5-0.6z"/>
  </g>
</svg>
