<svg id="人事" xmlns="http://www.w3.org/2000/svg" viewBox="0 0 26 26"><title>人事</title><path d="M12.79,18.69a2.15,2.15,0,0,1,1.81-1.43l2.23-.32-.26-.2A2.29,2.29,0,0,1,16,16a2.19,2.19,0,0,1-.21-.8,3.11,3.11,0,0,1,.05-.79,2.25,2.25,0,0,1,.16-.53,1.33,1.33,0,0,1,.26-.38,2.56,2.56,0,0,1,.37-.29,4.11,4.11,0,0,0,.44-.35,1.86,1.86,0,0,0,.38-.51c.11-.21.21-.43.3-.66s.17-.53.24-.8a1.25,1.25,0,0,0,.49-.28,1.81,1.81,0,0,0,.38-.51,2.8,2.8,0,0,0,.24-.86,2.12,2.12,0,0,0,0-.7,1.69,1.69,0,0,0-.17-.47.67.67,0,0,0-.28-.31,11.8,11.8,0,0,0-.13-2.07A10.75,10.75,0,0,0,18,3.81,6,6,0,0,0,17,2a4.1,4.1,0,0,0-.76-.71A6.21,6.21,0,0,0,15.21.65,7.43,7.43,0,0,0,13.93.18,5.62,5.62,0,0,0,12.48,0a8.25,8.25,0,0,0-1.24.1A6.1,6.1,0,0,0,10,.47a5.71,5.71,0,0,0-1.24.71A5.11,5.11,0,0,0,7.64,2.33,5.81,5.81,0,0,0,6.85,4a10.92,10.92,0,0,0-.38,1.76,12.1,12.1,0,0,0-.11,2A1.84,1.84,0,0,0,6,8.28a2.31,2.31,0,0,0-.14.61A1.93,1.93,0,0,0,6,9.68a2.16,2.16,0,0,0,.32.67,2.22,2.22,0,0,0,.34.36,1.2,1.2,0,0,0,.37.18l.26.8c.09.22.18.44.28.66a1.55,1.55,0,0,0,.37.51c.3.24.56.47.8.7a1.43,1.43,0,0,1,.4,1c0,.26,0,.51,0,.73a1.71,1.71,0,0,1-.53,1.27,4.13,4.13,0,0,1-.84.65,5.27,5.27,0,0,1-1.57.67c-.6.16-3.22,1-3.78,1.24a4.82,4.82,0,0,0-1.47.77,2.21,2.21,0,0,0-.78,1.45,5.34,5.34,0,0,0-.12,2c.09.7.24,1.12.43,1.26A4.72,4.72,0,0,0,1.83,25a58.6,58.6,0,0,0,10.91,1c.71,0,1.4,0,2.06,0a2.55,2.55,0,0,1,0-.73l.44-2.53-1.85-1.79a2.12,2.12,0,0,1-.62-2.22ZM25.62,19l-2.72-.39a1.63,1.63,0,0,1-1.1-.79l-1.22-2.45c-.09-.19-.22-.28-.34-.28s-.24.1-.34.28l-1.22,2.45a1.65,1.65,0,0,1-1.1.79l-2.72.4c-.42.06-.51.35-.21.64l2,1.9A1.64,1.64,0,0,1,17,22.83l-.46,2.69c-.05.3.07.47.28.47a.59.59,0,0,0,.28-.08l2.43-1.27a1.53,1.53,0,0,1,.68-.15,1.51,1.51,0,0,1,.68.15l2.43,1.27a.6.6,0,0,0,.28.08c.21,0,.32-.18.28-.47l-.46-2.69a1.61,1.61,0,0,1,.42-1.28l2-1.9c.3-.3.21-.58-.2-.65Z"/></svg>