<svg id="图层_22" data-name="图层 22" xmlns="http://www.w3.org/2000/svg" viewBox="0 0 24.29 26"><title>商品</title><path d="M22.8,0H3.49A2.61,2.61,0,0,0,1,2.72V23.28A2.61,2.61,0,0,0,3.49,26H22.8a2.61,2.61,0,0,0,2.49-2.72V2.71A2.61,2.61,0,0,0,22.8,0ZM20.87,8.12a8.11,8.11,0,0,1-7.71,7.14A8.12,8.12,0,0,1,5.43,8.12a1.94,1.94,0,0,1-1.11-1.8A1.86,1.86,0,0,1,6.09,4.38,1.86,1.86,0,0,1,7.87,6.32a2.08,2.08,0,0,1-.17.81,1.7,1.7,0,0,1-.37.73,6.07,6.07,0,0,0,5.82,5.3A6.07,6.07,0,0,0,19,7.86a1.63,1.63,0,0,1-.37-.69,2.07,2.07,0,0,1-.19-.85,1.78,1.78,0,1,1,3.55,0,2,2,0,0,1-1.11,1.8Z" transform="translate(-1)"/></svg>