<svg id="图层_3" data-name="图层 3" xmlns="http://www.w3.org/2000/svg" viewBox="0 0 24.12 25.98"><title>商品管理</title><path d="M19.83,26H6A3.27,3.27,0,0,1,2.9,23.35l-2-12a2.54,2.54,0,0,1,.54-2.08,2.54,2.54,0,0,1,2-.88H22.47a2.48,2.48,0,0,1,2.49,3l-2,12A3.27,3.27,0,0,1,19.83,26ZM3.41,10.2a.68.68,0,0,0-.54.22.69.69,0,0,0-.13.57l2,12A1.42,1.42,0,0,0,6,24.14H19.83A1.42,1.42,0,0,0,21.14,23l2-12a.63.63,0,0,0-.66-.8Zm3.9,5.57a1.86,1.86,0,1,1,1.85-1.86,1.86,1.86,0,0,1-1.85,1.86Zm0-1.86h0v0ZM18.5,15.77a1.86,1.86,0,1,1,1.86-1.86,1.86,1.86,0,0,1-1.86,1.86Zm0-1.86h0v0Zm.93-6.48a.93.93,0,0,1-.93-.93c0-2.66-3-4.64-5.62-4.64S7.37,3.61,7.37,6.5a.93.93,0,0,1-1.86,0C5.52,2.44,9.26,0,12.89,0s7.47,2.67,7.47,6.5a.93.93,0,0,1-.93.93Z" transform="translate(-0.88 -0.02)"/></svg>