<?xml version="1.0" standalone="no"?><!DOCTYPE svg PUBLIC "-//W3C//DTD SVG 1.1//EN" "http://www.w3.org/Graphics/SVG/1.1/DTD/svg11.dtd"><svg t="1537252374544" class="icon" style="" viewBox="0 0 1024 1024" version="1.1" xmlns="http://www.w3.org/2000/svg" p-id="11841" xmlns:xlink="http://www.w3.org/1999/xlink" width="200" height="200"><defs><style type="text/css"></style></defs><path d="M853.923952 953.885106H507.487731c-46.157249 0-82.309634-36.196387-82.309634-82.391499v-18.085913c0-45.503357 35.384905-79.82607 82.309634-79.82607h118.876458c-1.445932-29.140691-12.117992-57.313334-26.939559-70.15378l-2.817162-2.75474-4.408403-4.880148c-31.945573-26.473955-50.244334-65.349357-50.244334-106.84033 0-76.479859 62.2426-138.697899 138.748041-138.697899s138.748041 62.268182 138.74804 138.798183c0 40.98853-17.784038 79.410608-48.892547 105.8467l-8.52721 9.608845c-15.029298 13.004175-25.487487 40.183188-26.907837 69.072145h118.801757c48.452525 0 86.402859 35.06461 86.402859 79.82607v18.085914c0 45.428655-38.761815 82.392522-86.403882 82.392522zM507.487731 837.976236c-6.691399 0-17.916045 1.99954-17.916045 15.431458v18.085913c0 10.766205 7.199982 17.997909 17.916045 17.99791h346.437244c10.407024 0 22.00927-7.395434 22.00927-17.99791v-18.085913c0-10.640338-12.872169-15.431457-22.00927-15.431458H507.487731z m135.710868-181.773973c16.46295 14.865569 29.423123 36.184107 37.661762 60.84681 8.143471-23.870664 20.808932-44.597731 36.850279-59.275012l4.697999-5.659906c1.439792-1.735527 3.37691-3.735068 5.244444-5.282307 17.46272-14.287401 27.405163-35.316344 27.405164-57.777915 0-41.025369-33.353642-74.404594-74.354452-74.404593s-74.354452 33.329083-74.354452 74.304309c0 22.437012 9.998725 43.453674 27.423583 57.665351a49.082882 49.082882 0 0 1 5.200442 4.892427l4.225231 4.690836z" fill="" p-id="11842"></path><path d="M747.14502 67.440995H193.358311c-56.666604 0-105.039311 53.838186-105.039311 110.505813v605.300966c0 56.665581 48.372707 95.554286 105.039311 95.554286h172.381046c-0.438998 0-6.966669-2.287089-6.966669-7.307429v-18.085914c0-80.869842 66.449411-154.909116 148.715043-154.909116h9.438977c-25.38004-25.75764-39.365566-71.071685-39.365566-114.889657 0-111.984491 90.127693-200.418612 202.137766-200.418612 70.742181 0 129.830951 36.777625 168.4669 91.15714V177.945785c0-56.666604-44.355207-110.50479-101.020788-110.50479zM502.972904 392.163681H245.397524c-17.784038 0-32.197306-14.413268-32.197306-32.197306s14.413268-32.197306 32.197306-32.197306h257.574357c17.784038 0 32.197306 14.413268 32.197306 32.197306s-14.412244 32.197306-32.196283 32.197306zM683.275363 250.510474H245.397524c-17.784038 0-32.197306-14.413268-32.197306-32.197306s14.413268-32.197306 32.197306-32.197307H683.275363c17.784038 0 32.197306 14.413268 32.197307 32.197307s-14.413268 32.197306-32.197307 32.197306z" fill="" p-id="11843"></path></svg>