<svg id="图层_18" data-name="图层 18" xmlns="http://www.w3.org/2000/svg" viewBox="0 0 26 26"><title>设置</title><path d="M24.39,10.54h0l-2.09-.46a9.53,9.53,0,0,0-.62-1.5L22.81,6.7a1.87,1.87,0,0,0,0-2.3L21.66,3.25a1.59,1.59,0,0,0-1.15-.44,2.17,2.17,0,0,0-1.2.37L17.48,4.35A9.82,9.82,0,0,0,16,3.72l-.47-2.11A1.91,1.91,0,0,0,13.81,0H12.19c-.9,0-1.45.85-1.62,1.63L10,3.71a9.7,9.7,0,0,0-1.58.67L6.58,3.18a2.17,2.17,0,0,0-1.21-.37,1.59,1.59,0,0,0-1.15.44L3.08,4.4a1.87,1.87,0,0,0,0,2.3l1.19,2a9.75,9.75,0,0,0-.57,1.4l-2.08.46A1.91,1.91,0,0,0,0,12.25v1.63c0,.9.85,1.45,1.62,1.63L3.74,16a9.56,9.56,0,0,0,.53,1.29l-1.19,2a1.87,1.87,0,0,0,0,2.3l1.15,1.15a1.59,1.59,0,0,0,1.15.44,2.17,2.17,0,0,0,1.2-.37l1.88-1.2a9.62,9.62,0,0,0,1.59.67l.52,2.08c.18.77.73,1.63,1.62,1.63h1.63a1.91,1.91,0,0,0,1.71-1.61L16,22.27a9.7,9.7,0,0,0,1.47-.62l1.83,1.17a2.17,2.17,0,0,0,1.2.37,1.59,1.59,0,0,0,1.15-.44l1.15-1.15a1.87,1.87,0,0,0,0-2.3l-1.13-1.88A9.9,9.9,0,0,0,22.26,16l2.11-.53c.77-.18,1.62-.73,1.62-1.63V12.25A1.91,1.91,0,0,0,24.39,10.54ZM13,16.93A3.92,3.92,0,1,1,17,13,3.93,3.93,0,0,1,13,16.93Z"/></svg>