<svg id="图层_20" data-name="图层 20" xmlns="http://www.w3.org/2000/svg" viewBox="0 0 26 25.94"><title>首页</title><path d="M26,8.17v3.22a3.44,3.44,0,0,1-.79,2.46v8.92A3.35,3.35,0,0,1,21.81,26H4.19A3.3,3.3,0,0,1,.84,22.76l0-8.92A4.07,4.07,0,0,1,0,11.41c0-.46,0-1.27,0-1.62L0,8.17,4.73.06H21.27L26,8.17M2.44,22.76a1.72,1.72,0,0,0,1.75,1.62H21.81a1.77,1.77,0,0,0,1.8-1.62V21.14H2.44ZM1.58,11.41c0,1.12,1.26,1.65,2.49,1.65s2.46-.83,2.46-1.65h.77c0,1,1.43,1.62,2.69,1.62s2.63-.8,2.63-1.62h.79c0,.79,1.4,1.62,2.6,1.62s2.71-.8,2.71-1.62h.77c0,.83,1.94,1.62,3.25,1.62,1.13,0,1.69-.5,1.7-1.62h0V9.79H1.58Z" transform="translate(0 -0.06)"/></svg>