<?xml version="1.0" standalone="no"?><!DOCTYPE svg PUBLIC "-//W3C//DTD SVG 1.1//EN" "http://www.w3.org/Graphics/SVG/1.1/DTD/svg11.dtd"><svg t="1537324963563" class="icon" style="" viewBox="0 0 1561 1024" version="1.1" xmlns="http://www.w3.org/2000/svg" p-id="1854" xmlns:xlink="http://www.w3.org/1999/xlink" width="304.8828125" height="200"><defs><style type="text/css"></style></defs><path d="M888.317602 0l12.173788 259.48613h-36.484473q-24.421356-126.718063-73.042726-162.944304-42.608257-36.189351-176.446142-36.189351h-85.179624v790.447727q0 84.552489 24.347575 108.604942 30.397579 24.200014 127.750991 30.176238v30.176237H225.141293v-30.176237q97.205851-5.902443 121.737877-36.226241c16.157936-12.063117 24.347575-52.199726 24.347575-120.66806V60.352475H285.973341q-133.911665 0-176.446142 36.189351Q60.758268 132.768067 36.521363 259.48613H0L12.173788 0z" p-id="1855"></path><path d="M1147.287269 514.102745l6.97226 129.743065h-20.953671q-13.94452-63.377477-41.722891-81.453707-24.347575-18.07623-100.821097-18.11312h-48.69515v395.242308q0 42.276245 13.90763 54.302472 17.375315 12.063117 73.005836 15.088118v15.088119h-260.666619v-15.088119q55.55674-2.988112 69.538151-18.11312c9.222566-6.050004 13.90763-26.118308 13.907631-60.352475V544.278983h-48.695151q-76.473521 0-100.821097 18.11312-27.81526 18.113121-41.722891 81.453707h-20.843l6.97226-129.743065zM1561.232942 340.165142l-407.93256 1.40183 205.515671 270.073636z" p-id="1856"></path></svg>