<?xml version="1.0" standalone="no"?><!DOCTYPE svg PUBLIC "-//W3C//DTD SVG 1.1//EN" "http://www.w3.org/Graphics/SVG/1.1/DTD/svg11.dtd"><svg t="1537252270691" class="icon" style="" viewBox="0 0 1024 1024" version="1.1" xmlns="http://www.w3.org/2000/svg" p-id="8273" xmlns:xlink="http://www.w3.org/1999/xlink" width="200" height="200"><defs><style type="text/css"></style></defs><path d="M991.632696 332.978087a510.018783 510.018783 0 0 0-88.776348-151.440696 54.160696 54.160696 0 0 0-82.67687 69.965913A403.678609 403.678609 0 0 1 915.500522 512c0 222.497391-181.00313 403.500522-403.500522 403.500522-222.497391 0-403.500522-181.00313-403.500522-403.500522 0-222.497391 181.00313-403.500522 403.500522-403.500522 63.977739 0 125.150609 14.514087 181.782261 43.163826a54.160696 54.160696 0 0 0 48.884869-96.678956A506.546087 506.546087 0 0 0 512 0.178087a508.66087 508.66087 0 0 0-199.234783 40.225391 510.063304 510.063304 0 0 0-162.682434 109.679305 510.063304 510.063304 0 0 0-109.679305 162.682434A508.66087 508.66087 0 0 0 0.178087 512a510.063304 510.063304 0 0 0 149.904696 361.917217 510.041043 510.041043 0 0 0 162.682434 109.679305A508.66087 508.66087 0 0 0 512 1023.821913a508.66087 508.66087 0 0 0 199.234783-40.225391 510.018783 510.018783 0 0 0 162.682434-109.679305 510.041043 510.041043 0 0 0 109.679305-162.682434A508.66087 508.66087 0 0 0 1023.821913 512c0-61.573565-10.818783-121.811478-32.189217-179.021913z" p-id="8274"></path><path d="M663.418435 313.566609l-43.141565 38.756174c-124.215652 117.693217-223.209739 262.767304-223.20974 262.767304l-72.548173-140.399304-164.797218 80.13913c69.721043 24.84313 176.39513 113.463652 246.784 200.236522l0.178087 0.044522c41.338435-75.464348 185.700174-210.498783 288.768-279.418435l40.514783-24.709565c15.961043-8.637217 29.918609-14.558609 41.049043-17.029566-31.788522-72.43687-3.917913-131.294609 0.623305-199.212521-38.310957 19.589565-76.955826 47.282087-114.220522 78.803478z" p-id="8275"></path></svg>