<svg id="图层_3" data-name="图层 3" xmlns="http://www.w3.org/2000/svg" viewBox="0 0 147.33 176.84"><defs><style>.cls-1{fill:#36a1e5;}</style></defs><title>word</title><path class="cls-1" d="M101.22,61.3v96.16H20.54V61.3ZM89.93,93.43c-5.63-2-8.89-1-10.67,5.21-1.48,5.86-3.85,11.4-6.52,18.25-2.08-7.17-3.85-13-5-19.22-.89-3.58-2.37-4.89-5.93-5.21-3.85,0-4.74,2-5.63,5.54-1.48,5.86-3.26,12.06-5,19.22-2.08-6.84-4.45-12.38-5.63-17.59-1.48-6.84-4.74-8.15-11-5.86,3.56,9.45,7.41,18.9,11,28.67,1.19,3.58,3.85,4.24,6.23,3.58a7.47,7.47,0,0,0,4.45-4.24c2.08-5.54,3.56-11.08,5.93-18.25,2.08,7.49,3.56,13.36,5.34,19.22.59,1.3,2.08,3.26,3.26,3.26,2.08,0,5.63-.65,6.52-2.28,4.74-10.1,8.6-20.2,12.75-30.3Z" transform="translate(-20.54 -11.58)"/><path class="cls-1" d="M159.41,62.22H124.59V23.44a8.44,8.44,0,0,0-3.39-1.06H59.26c-4,0-5.24,1.76-5.24,6,.31,7.05,0,14.1,0,21.5H45.09c0-8.81-.31-18,0-26.79.31-6.7,4.93-10.93,11.09-11.28,22.19,0,44.38-.7,66.56.35,5.86.35,12.63,4.58,17.57,9.17,6.78,6,12.63,13.75,18.8,21.15,6.47,7.76,8.63,17.63,8.63,27.85.31,34.19,0,68.74,0,102.93,0,10.58-4,15.16-13.25,15.16H58.34c-10.79,0-14.18-5.29-13.56-20.8H53.1c0,1.41.62,2.82.31,4.58-.31,4.94,1.85,6,5.85,6h93.68c2.77,0,5.86.35,5.86-4.58.62-36.66.62-73.67.62-111.39ZM153.25,62,133.53,41.15V62Z" transform="translate(-20.54 -11.58)"/><path class="cls-1" d="M112.26,94.16V82.68h34.51V94.16H112.26Zm35,12v11.46H111.8V106.17Zm-35.52,34.59v-11.6h35.44v11.6Z" transform="translate(-20.54 -11.58)"/></svg>