<?xml version="1.0" standalone="no"?><!DOCTYPE svg PUBLIC "-//W3C//DTD SVG 1.1//EN" "http://www.w3.org/Graphics/SVG/1.1/DTD/svg11.dtd"><svg t="1537253027246" class="icon" style="" viewBox="0 0 1024 1024" version="1.1" xmlns="http://www.w3.org/2000/svg" p-id="19571" xmlns:xlink="http://www.w3.org/1999/xlink" width="200" height="200"><defs><style type="text/css"></style></defs><path d="M292.788 785.778c-8.466 0-19.756-2.821-25.401-11.289-11.289-11.289-14.112-25.401-8.466-39.516l2.821-8.466c76.205-191.926 79.028-194.749 84.674-197.573l431.835-431.835c14.112-14.112 39.516-14.112 53.627 0l115.719 115.719c5.647 8.466 11.289 16.935 11.289 25.401s-2.821 19.756-11.289 25.401c-2.821 2.821-149.59 149.59-270.956 270.956-84.674 84.674-158.058 158.058-158.058 158.058-2.821 2.821-5.647 5.647-200.394 84.674l-5.647 2.821c-11.289 2.821-16.935 5.647-19.756 5.647zM800.83 114.034c0 0-2.821 0-5.647 2.821l-431.835 431.835c0 2.821-11.289 28.227-76.205 189.104l-2.821 5.647c0 2.821 0 5.647 2.821 8.466 2.821 2.821 5.647 2.821 8.466 2.821l5.647-2.821c169.346-67.738 191.926-79.028 194.749-79.028v0c0 0 73.385-73.385 158.058-158.058 121.364-121.364 270.956-270.956 270.956-270.956 2.821-2.821 2.821-2.821 2.821-5.647 0-2.821 0-5.647-2.821-5.647l-115.719-115.719c-2.821-2.821-5.647-2.821-8.466-2.821z" p-id="19572"></path><path d="M448.022 647.478c-2.821 0-8.466 0-11.289-2.821-5.647-5.647-5.647-14.112 0-19.756l386.676-383.853c5.647-5.647 14.112-5.647 19.756 0s5.647 14.112 0 19.756l-383.853 381.029c-2.821 2.821-8.466 5.647-11.289 5.647z" p-id="19573"></path><path d="M501.652 701.104c-2.821 0-8.466 0-11.289-2.821l-146.768-146.768c-5.647-5.647-5.647-14.112 0-19.756s14.112-5.647 19.756 0l146.768 146.768c5.647 5.647 5.647 14.112 0 19.756 0 0-5.647 2.821-8.466 2.821z" p-id="19574"></path><path d="M335.126 768.843c-2.821 0-8.466 0-11.289-2.821l-50.805-50.805c-5.647-5.647-5.647-14.112 0-19.756s14.112-5.647 19.756 0l50.805 50.805c5.647 5.647 5.647 14.112 0 19.756-2.821 2.821-5.647 2.821-8.466 2.821z" p-id="19575"></path><path d="M710.513 921.255h-527.798c-39.516 0-67.738-28.227-67.738-67.738v-524.975c0-22.579 8.466-56.449 70.561-56.449h304.826c8.466 0 14.112 5.647 14.112 14.112s-5.647 14.112-14.112 14.112h-304.826c-36.692 0-42.336 14.112-42.336 28.227v524.975c0 22.579 14.112 36.692 36.692 36.692h527.798c14.112 0 25.401-2.821 25.401-36.692v-310.47c0-8.466 5.647-14.112 14.112-14.112s14.112 5.647 14.112 14.112v310.47c2.821 56.449-25.401 67.738-50.805 67.738z" p-id="19576"></path></svg>