<svg id="图层_5" data-name="图层 5" xmlns="http://www.w3.org/2000/svg" viewBox="0 0 26 19.42"><title>业务员管理</title><path d="M9.59,14.48a5.3,5.3,0,1,1,5.3-5.3A5.3,5.3,0,0,1,9.59,14.48Zm0-9.06a3.76,3.76,0,1,0,3.76,3.76A3.77,3.77,0,0,0,9.59,5.42Z" transform="translate(0 -3.89)"/><path d="M18.42,23.31a.77.77,0,0,1-.77-.77,8.06,8.06,0,1,0-16.12,0,.77.77,0,0,1-1.53,0,9.59,9.59,0,1,1,19.19,0A.77.77,0,0,1,18.42,23.31ZM25.23,7.74H18.42a.77.77,0,0,1,0-1.53h6.81a.77.77,0,0,1,0,1.53Zm0,6.26H18.42a.77.77,0,0,1,0-1.53h6.81a.77.77,0,0,1,0,1.53Zm-.57,5.84h-3.6a.77.77,0,1,1,0-1.53h3.6a.77.77,0,1,1,0,1.53Z" transform="translate(0 -3.89)"/><path d="M8.85,22.77a.77.77,0,0,1-.54-.22L5.81,20a.77.77,0,1,1,1.07-1.1h0l1.93,1.93,3.44-3.79a.77.77,0,0,1,1.13,1l-4,4.38a.76.76,0,0,1-.55.25h0Z" transform="translate(0 -3.89)"/></svg>